<svg width="18" height="11" viewBox="0 0 18 11" fill="none" xmlns="http://www.w3.org/2000/svg">
<path fill-rule="evenodd" clip-rule="evenodd" d="M17.25 5.5C17.25 5.34531 17.1874 5.19696 17.0761 5.08758C16.9648 4.9782 16.8137 4.91675 16.6563 4.91675H2.65299L6.38982 1.24693C6.44502 1.1927 6.48881 1.12832 6.51868 1.05747C6.54856 0.986618 6.56393 0.910679 6.56393 0.833988C6.56393 0.757298 6.54856 0.681358 6.51868 0.610506C6.48881 0.539653 6.44502 0.475274 6.38982 0.421046C6.33462 0.366818 6.26908 0.323802 6.19696 0.294454C6.12484 0.265105 6.04754 0.25 5.96947 0.25C5.8914 0.25 5.8141 0.265105 5.74198 0.294454C5.66986 0.323802 5.60432 0.366818 5.54912 0.421046L0.799425 5.08706C0.744135 5.14124 0.700268 5.2056 0.670337 5.27646C0.640407 5.34732 0.625 5.42328 0.625 5.5C0.625 5.57672 0.640407 5.65268 0.670337 5.72354C0.700268 5.7944 0.744135 5.85876 0.799425 5.91294L5.54912 10.579C5.60432 10.6332 5.66986 10.6762 5.74198 10.7055C5.8141 10.7349 5.8914 10.75 5.96947 10.75C6.04754 10.75 6.12484 10.7349 6.19696 10.7055C6.26908 10.6762 6.33462 10.6332 6.38982 10.579C6.44502 10.5247 6.48881 10.4603 6.51868 10.3895C6.54856 10.3186 6.56393 10.2427 6.56393 10.166C6.56393 10.0893 6.54856 10.0134 6.51868 9.94253C6.48881 9.87168 6.44502 9.8073 6.38982 9.75307L2.65299 6.08325H16.6563C16.8137 6.08325 16.9648 6.0218 17.0761 5.91242C17.1874 5.80304 17.25 5.65469 17.25 5.5Z" fill="white"/>
</svg>
