<svg width="18" height="11" viewBox="0 0 18 11" fill="none" xmlns="http://www.w3.org/2000/svg">
<path fill-rule="evenodd" clip-rule="evenodd" d="M0.625 5.5C0.625 5.65469 0.687551 5.80304 0.798895 5.91242C0.910236 6.0218 1.06125 6.08325 1.21871 6.08325L15.222 6.08325L11.4852 9.75307C11.43 9.8073 11.3862 9.87168 11.3563 9.94253C11.3264 10.0134 11.3111 10.0893 11.3111 10.166C11.3111 10.2427 11.3264 10.3186 11.3563 10.3895C11.3862 10.4603 11.43 10.5247 11.4852 10.579C11.5404 10.6332 11.6059 10.6762 11.678 10.7055C11.7502 10.7349 11.8275 10.75 11.9055 10.75C11.9836 10.75 12.0609 10.7349 12.133 10.7055C12.2051 10.6762 12.2707 10.6332 12.3259 10.579L17.0756 5.91294C17.1309 5.85876 17.1747 5.7944 17.2047 5.72354C17.2346 5.65268 17.25 5.57672 17.25 5.5C17.25 5.42328 17.2346 5.34732 17.2047 5.27646C17.1747 5.2056 17.1309 5.14124 17.0756 5.08706L12.3259 0.421046C12.2707 0.366818 12.2051 0.323802 12.133 0.294454C12.0609 0.265105 11.9836 0.250001 11.9055 0.250001C11.8275 0.250001 11.7502 0.265105 11.678 0.294454C11.6059 0.323802 11.5404 0.366818 11.4852 0.421046C11.43 0.475275 11.3862 0.539653 11.3563 0.610505C11.3264 0.681358 11.3111 0.757298 11.3111 0.833988C11.3111 0.910679 11.3264 0.986619 11.3563 1.05747C11.3862 1.12832 11.43 1.1927 11.4852 1.24693L15.222 4.91675L1.21871 4.91675C1.06125 4.91675 0.910236 4.9782 0.798895 5.08758C0.687551 5.19696 0.625 5.34531 0.625 5.5Z" fill="white"/>
</svg>
